<svg xmlns="http://www.w3.org/2000/svg" style="display: none;">
	<symbol id="cart" viewBox="0 0 20 20">
		<path d="M14.55 11c.75 0 1.41-.41 1.75-1.03l3.58-6.49A.996.996 0 0 0 19.01 2H4.21l-.94-2H0v2h2l3.6 7.59-1.35 2.44C3.52 13.37 4.48 15 6 15h12v-2H6l1.1-2zM5.16 4h12.15l-2.76 5H7.53zM6 16c-1.1 0-1.99.9-1.99 2S4.9 20 6 20s2-.9 2-2-.9-2-2-2m10 0c-1.1 0-1.99.9-1.99 2s.89 2 1.99 2 2-.9 2-2-.9-2-2-2"/>
	</symbol>
	<symbol id="user-svgrepo-com" viewBox="0 0 16 16">
		<path d="M8 7a3 3 0 1 0 0-6 3 3 0 0 0 0 6m6 5a3 3 0 0 0-3-3H5a3 3 0 0 0-3 3v3h12z"/>
	</symbol>
	<symbol id="user" viewBox="0 0 16 16">
		<path d="M8 2c1.1 0 2 .9 2 2s-.9 2-2 2-2-.9-2-2 .9-2 2-2m0 10c2.7 0 5.8 1.29 6 2H2c.23-.72 3.31-2 6-2M8 0C5.79 0 4 1.79 4 4s1.79 4 4 4 4-1.79 4-4-1.79-4-4-4m0 10c-2.67 0-8 1.34-8 4v2h16v-2c0-2.66-5.33-4-8-4"/>
	</symbol>
</svg>
