<svg xmlns="http://www.w3.org/2000/svg" style="display: none;">
	<symbol id="cart" viewBox="0 0 20 20">
		<path d="M14.55 11c.75 0 1.41-.41 1.75-1.03l3.58-6.49A.996.996 0 0 0 19.01 2H4.21l-.94-2H0v2h2l3.6 7.59-1.35 2.44C3.52 13.37 4.48 15 6 15h12v-2H6l1.1-2zM5.16 4h12.15l-2.76 5H7.53zM6 16c-1.1 0-1.99.9-1.99 2S4.9 20 6 20s2-.9 2-2-.9-2-2-2m10 0c-1.1 0-1.99.9-1.99 2s.89 2 1.99 2 2-.9 2-2-.9-2-2-2"/>
	</symbol>
	<symbol id="facebook" viewBox="0 0 24 24">
		<path d="M23 12c0-6.07-4.93-11-11-11S1 5.93 1 12c0 5.494 4.028 10.041 9.285 10.865V15.17h-2.81v-3.18h2.81V9.563c0-2.753 1.636-4.287 4.14-4.287 1.208 0 2.449.237 2.449.237v2.685h-1.377c-1.365 0-1.805.857-1.805 1.726v2.065h3.058l-.485 3.181h-2.561v7.695C18.972 22.04 23 17.495 23 12"/>
	</symbol>
	<symbol id="instagram" viewBox="0 0 24 24">
		<path fill-rule="evenodd" d="M12 3.127c2.892 0 3.231.013 4.374.065 1.057.047 1.629.223 2.011.373.507.198.868.43 1.246.808s.615.74.808 1.246c.146.383.327.954.374 2.011.052 1.143.064 1.483.064 4.374 0 2.892-.012 3.232-.064 4.375-.047 1.057-.223 1.628-.374 2.01a3.36 3.36 0 0 1-.808 1.247 3.3 3.3 0 0 1-1.246.808c-.382.146-.954.326-2.01.373-1.144.052-1.483.065-4.375.065s-3.231-.013-4.374-.065c-1.057-.047-1.629-.223-2.011-.373a3.36 3.36 0 0 1-1.246-.808 3.3 3.3 0 0 1-.808-1.246c-.146-.383-.327-.954-.374-2.011-.051-1.143-.064-1.483-.064-4.375s.013-3.23.064-4.374c.047-1.057.224-1.628.374-2.01a3.36 3.36 0 0 1 .808-1.247 3.3 3.3 0 0 1 1.246-.808c.382-.146.954-.326 2.01-.373C8.77 3.136 9.109 3.127 12 3.127m0-1.95c-2.939 0-3.309.012-4.464.064-1.152.051-1.938.236-2.626.502a5.3 5.3 0 0 0-1.916 1.25 5.4 5.4 0 0 0-1.25 1.917c-.267.688-.452 1.474-.503 2.63-.052 1.15-.065 1.52-.065 4.46s.013 3.309.065 4.465c.051 1.151.236 1.937.502 2.63a5.3 5.3 0 0 0 1.25 1.916 5.4 5.4 0 0 0 1.917 1.25c.688.266 1.474.451 2.63.503s1.521.064 4.464.064 3.309-.013 4.465-.064c1.151-.052 1.938-.237 2.63-.503a5.3 5.3 0 0 0 1.916-1.25 5.4 5.4 0 0 0 1.25-1.917c.267-.687.451-1.474.503-2.63s.064-1.52.064-4.464c0-2.943-.012-3.309-.064-4.464-.052-1.152-.236-1.938-.503-2.63a5.3 5.3 0 0 0-1.25-1.916 5.4 5.4 0 0 0-1.916-1.25c-.688-.267-1.474-.452-2.63-.504-1.16-.047-1.53-.06-4.469-.06m0 5.263a5.561 5.561 0 0 0 0 11.12A5.564 5.564 0 0 0 17.56 12 5.564 5.564 0 0 0 12 6.44m0 9.17a3.609 3.609 0 1 1 0-7.218 3.609 3.609 0 0 1 0 7.218m7.077-9.39a1.298 1.298 0 1 1-2.596 0 1.298 1.298 0 0 1 2.596 0" clip-rule="evenodd"/>
	</symbol>
	<symbol id="twitter" viewBox="0 0 24 24">
		<path d="M22 5.13a7.6 7.6 0 0 1-2.356.716c.848-.563 1.496-1.454 1.804-2.514a7.8 7.8 0 0 1-2.607 1.104C18.092 3.551 17.027 3 15.846 3c-2.266 0-4.103 2.036-4.103 4.545q0 .535.106 1.035c-3.409-.19-6.432-2-8.456-4.75a4.9 4.9 0 0 0-.554 2.286c0 1.577.724 2.968 1.824 3.783a3.8 3.8 0 0 1-1.858-.57v.056c0 2.202 1.415 4.04 3.29 4.457-.343.103-.706.16-1.08.16q-.398-.001-.773-.085c.522 1.807 2.037 3.121 3.832 3.157-1.404 1.219-3.173 1.943-5.095 1.943A8 8 0 0 1 2 18.955C3.816 20.247 5.972 21 8.289 21c7.547 0 11.673-6.926 11.673-12.933l-.014-.589A8.7 8.7 0 0 0 22 5.13"/>
	</symbol>
	<symbol id="user-svgrepo-com" viewBox="0 0 16 16">
		<path d="M8 7a3 3 0 1 0 0-6 3 3 0 0 0 0 6m6 5a3 3 0 0 0-3-3H5a3 3 0 0 0-3 3v3h12z"/>
	</symbol>
	<symbol id="user" viewBox="0 0 16 16">
		<path d="M8 2c1.1 0 2 .9 2 2s-.9 2-2 2-2-.9-2-2 .9-2 2-2m0 10c2.7 0 5.8 1.29 6 2H2c.23-.72 3.31-2 6-2M8 0C5.79 0 4 1.79 4 4s1.79 4 4 4 4-1.79 4-4-1.79-4-4-4m0 10c-2.67 0-8 1.34-8 4v2h16v-2c0-2.66-5.33-4-8-4"/>
	</symbol>
</svg>
