<svg width="31" height="63" viewBox="0 0 31 63" fill="none" xmlns="http://www.w3.org/2000/svg">
<path d="M0.242865 2.38609C0.00606017 2.52814 -0.070755 2.83527 0.0712926 3.07207L2.3861 6.93104C2.52815 7.16785 2.83527 7.24467 3.07207 7.10262C3.30888 6.96057 3.3857 6.65345 3.24365 6.41664L1.18604 2.98644L4.61624 0.928838C4.85305 0.786788 4.92986 0.479671 4.78781 0.242859C4.64577 0.00605458 4.33865 -0.0707577 4.10184 0.0712851L0.242865 2.38609ZM25.9608 62.3578C26.4165 62.5637 26.4166 62.5634 26.4167 62.5631C26.4168 62.563 26.4169 62.5626 26.4171 62.5622C26.4175 62.5614 26.4179 62.5604 26.4185 62.559C26.4197 62.5564 26.4214 62.5526 26.4236 62.5477C26.428 62.5379 26.4343 62.5236 26.4425 62.5049C26.4589 62.4675 26.4828 62.4126 26.5133 62.3407C26.5745 62.1968 26.6626 61.985 26.7717 61.7098C26.99 61.1594 27.2926 60.3555 27.6326 59.3352C28.3125 57.2951 29.1428 54.3875 29.7469 50.9108C30.9542 43.9627 31.2638 34.7086 27.6286 25.5633L26.6993 25.9326C30.2426 34.8468 29.9505 43.8976 28.7617 50.7396C28.1677 54.1579 27.3513 57.0165 26.6839 59.019C26.3503 60.02 26.0542 60.8064 25.8422 61.3411C25.7361 61.6084 25.6512 61.8127 25.593 61.9494C25.564 62.0178 25.5417 62.0692 25.5268 62.1032C25.5193 62.1201 25.5137 62.1327 25.5101 62.1409C25.5083 62.1449 25.507 62.1479 25.5061 62.1498C25.5057 62.1507 25.5054 62.1513 25.5053 62.1517C25.5052 62.1519 25.5052 62.1519 25.5051 62.152C25.5051 62.152 25.5052 62.1519 25.9608 62.3578ZM27.6286 25.5633C23.9859 16.3992 17.2249 10.5917 11.3981 7.08085C8.48329 5.32455 5.79547 4.13867 3.83491 3.39134C2.85432 3.01756 2.05478 2.75315 1.49862 2.58173C1.22051 2.49602 1.00317 2.43353 0.854393 2.39223C0.78 2.37158 0.722741 2.35622 0.683583 2.3459C0.664007 2.34075 0.648952 2.33685 0.638547 2.33418C0.633344 2.33284 0.6293 2.33181 0.626436 2.33108C0.625005 2.33072 0.623865 2.33043 0.623023 2.33022C0.622603 2.33012 0.622195 2.33002 0.621982 2.32996C0.621649 2.32988 0.621389 2.32981 0.500067 2.81487C0.378744 3.29992 0.378633 3.2999 0.378595 3.29989C0.378681 3.29991 0.378717 3.29992 0.378889 3.29996C0.379232 3.30005 0.379872 3.30021 0.380802 3.30045C0.382665 3.30092 0.385697 3.30169 0.389888 3.30277C0.398268 3.30492 0.411273 3.30829 0.428781 3.3129C0.4638 3.32213 0.516832 3.33634 0.586905 3.35579C0.727062 3.3947 0.935367 3.45455 1.20408 3.53738C1.74156 3.70303 2.5204 3.96046 3.47873 4.32576C5.396 5.05659 8.02818 6.21783 10.882 7.93738C16.5925 11.3782 23.1634 17.0372 26.6993 25.9326L27.6286 25.5633Z" fill="#313030"/>
</svg>
